<svg width="344.92" height="135.92" xmlns="http://www.w3.org/2000/svg" xmlns:xlink="http://www.w3.org/1999/xlink">
 <g>
  <title>background</title>
  <rect fill="none" id="canvas_background" height="137.92" width="346.92" y="-1" x="-1"/>
 </g>
 <g>
  <title>Layer 1</title>
  <g id="svg_1">
   <g id="svg_2">
    <path id="svg_3" d="m42.951496,4.962998c14.219,0 22.139,3.419 28.259,8.819c7.02,6.119 11.699,15.119 11.699,25.379c0,8.279 -3.96,16.739 -8.1,21.06c11.159,5.579 18.899,18.179 18.899,32.218c0,10.62 -4.5,20.339 -11.52,27.179c-7.02,7.02 -16.739,11.34 -32.938,11.34l-49.138,0l0,-125.995l42.839,0zm-18.539,48.598l17.1,0c7.559,0 10.979,-1.799 13.499,-4.5c2.159,-2.34 3.6,-5.58 3.6,-9c0,-3.419 -1.44,-6.659 -3.6,-8.999c-2.521,-2.7 -5.94,-4.5 -13.499,-4.5l-17.1,0l0,26.999zm24.299,55.797c8.459,0 13.139,-2.16 16.199,-5.579c2.88,-3.06 4.5,-7.021 4.5,-11.519c0,-4.5 -1.62,-8.461 -4.5,-11.521c-3.061,-3.42 -7.74,-5.58 -16.199,-5.58l-24.299,0l0,34.198l24.299,0l0,0.001z" fill="#F9D53D"/>
    <path id="svg_4" d="m224.686496,132.456998l-28.646,0l-11.879,-27.898l-48.595,0l-11.88,27.898l-28.645,0l55.283,-128.994l19.078,0l55.284,128.994zm-26.663,-3l22.111,0l-52.711,-122.994l-15.121,0l-52.713,122.994l22.113,0l11.879,-27.898l52.562,0l11.88,27.898zm-19.953,-46.498l-36.595,0l18.298,-42.556l18.297,42.556zm-32.039,-3l27.482,0l-13.74,-31.961l-13.742,31.961z" fill="#F9D53D"/>
    <path id="svg_5" d="m261.112496,75.158998l0,55.798l-24.299,0l0,-125.994l45.897,0c12.96,0 21.24,3.6 27.539,9.359c6.84,6.48 11.16,15.659 11.16,25.738c0,10.08 -4.32,19.26 -11.16,25.739c-3.42,3.24 -7.559,5.76 -12.6,7.38l47.158,57.777l-30.059,0l-44.818,-55.798l-8.818,0l0,0.001zm20.16,-21.598c7.02,0 10.08,-1.44 12.24,-3.78c2.159,-2.34 3.6,-5.939 3.6,-9.539c0,-3.78 -1.44,-7.38 -3.6,-9.72c-2.16,-2.34 -5.221,-3.96 -12.24,-3.96l-20.159,0l0,26.999l20.159,0z" fill="#F9D53D"/>
   </g>
  </g>
  <g id="svg_6">
   <defs>
    <rect height="800" width="800" y="-961.08" id="SVGID_3_"/>
   </defs>
   <clipPath id="SVGID_2_">
    <use id="svg_7" xlink:href="#SVGID_3_"/>
   </clipPath>
   <g id="svg_8" clip-path="url(#SVGID_2_)">
    <g id="svg_9">
     <g id="svg_10">
      <g id="svg_11">
       <g id="svg_12">
        <path id="svg_13" d="m158.692,71.172c10.673,-10.674 18.266,-12.498 24.301,-12.874c8.977,-0.616 17.684,2.593 23.893,8.802c5.293,5.293 8.175,13.343 8.285,18.561l0.088,4.067l3.859,-1.286c10.939,-3.644 24.232,-0.152 33.078,8.693c6.6,6.601 10.315,15.788 10.194,25.244c0,10.229 -4.44,19.232 -14.396,29.188l-32.624,32.623l-84.849,-84.849l28.171,-28.169m19.133,49.594l2.121,-2.121l12.092,-12.092c5.254,-5.254 7.419,-9.726 7.24,-14.969c-0.166,-4.115 -1.877,-8.091 -4.696,-10.91c-2.817,-2.816 -6.794,-4.529 -10.927,-4.695c-5.226,-0.179 -9.697,1.987 -14.951,7.24l-12.091,12.092l-2.122,2.121l2.122,2.121l19.091,19.092l2.121,2.121m39.455,39.455l2.121,-2.121l17.183,-17.183c6.039,-6.038 8.706,-11.648 8.384,-17.648c-0.162,-5.056 -2.18,-9.663 -5.838,-13.321s-8.266,-5.677 -13.322,-5.839c-5.999,-0.321 -11.609,2.345 -17.648,8.384l-17.182,17.183l-2.121,2.122l2.121,2.12l24.182,24.183l2.12,2.12m-60.709,-91.171l-30.291,30.291l89.091,89.091l34.745,-34.744c11.455,-11.455 15.273,-21.383 15.273,-31.309c0.127,-9.801 -3.563,-19.856 -11.072,-27.365c-9.928,-9.928 -24.31,-13.363 -36.146,-9.418c-0.127,-5.982 -3.309,-14.764 -9.164,-20.618c-7.254,-7.254 -16.928,-10.309 -26.219,-9.673c-8.144,0.508 -16.163,3.691 -26.217,13.745l0,0zm21.254,47.472l-19.091,-19.091l12.091,-12.092c5.346,-5.345 9.036,-6.49 12.727,-6.362c3.183,0.127 6.491,1.401 8.909,3.817c2.418,2.419 3.691,5.729 3.818,8.91c0.128,3.69 -1.018,7.381 -6.362,12.727l-12.092,12.091l0,0zm39.455,39.456l-24.182,-24.181l17.182,-17.184c5.982,-5.98 10.818,-7.762 15.4,-7.508c4.199,0.127 8.146,1.781 11.328,4.963s4.835,7.128 4.963,11.328c0.254,4.582 -1.527,9.418 -7.51,15.4l-17.181,17.182l0,0z" fill="#CCCCCC"/>
        <path id="svg_14" d="m328.228,-98.365c7.778,-7.777 15.43,-11.584 24.077,-11.977c8.938,-0.235 17.634,3.201 23.863,9.431c6.235,6.235 9.673,14.942 9.431,23.891c-0.12,4.471 -1.219,8.669 -3.359,12.837l-2.011,3.912l4.376,0.444l67.912,6.872l-15.769,15.768l-69.716,-7.607l-1.43,-0.155l-1.017,1.017l-6.237,6.236l-2.121,2.121l2.121,2.121l37.334,37.334l-12.939,12.939l-84.849,-84.85l30.334,-30.334m16.969,51.759l2.121,-2.121l14.256,-14.256c5.055,-5.054 7.04,-8.985 6.858,-13.569c-0.162,-4.055 -2.061,-8.275 -5.076,-11.292c-3.096,-3.095 -7.365,-5.041 -11.421,-5.202c-4.693,-0.189 -8.79,1.824 -13.695,6.73l-14.255,14.255l-2.122,2.121l2.122,2.122l19.091,19.091l2.121,2.121m-19.091,-53.88l-32.455,32.455l89.092,89.092l17.182,-17.182l-39.454,-39.455l6.236,-6.236l71.146,7.763l21.255,-21.255l-74.2,-7.509c2.42,-4.709 3.563,-9.418 3.691,-14.126c0.254,-9.42 -3.182,-18.966 -10.31,-26.094c-7.127,-7.127 -16.673,-10.562 -26.091,-10.308c-8.527,0.381 -16.927,3.692 -26.092,12.855l0,0zm19.091,49.636l-19.091,-19.09l14.255,-14.255c4.964,-4.964 8.273,-5.982 11.455,-5.855c3.181,0.129 6.745,1.654 9.419,4.328c2.545,2.545 4.071,6.11 4.2,9.291c0.127,3.182 -1.02,6.363 -5.983,11.327l-14.255,14.254l0,0z" fill="#CCCCCC"/>
        <g id="svg_15">
         <path id="svg_16" d="m245.327,-19.684l-12.091,12.091l50.914,127.278l17.945,-17.945l-11.398,-28.2l35.764,-35.764l28.199,11.399l17.945,-17.945l-127.278,-50.914zm61.08,50.644l-22.654,22.654l-3.222,3.222l-1.526,-4.072l-14.939,-37.594l-2.544,-6.441l6.511,2.614l37.518,14.863l4.078,1.532l-3.222,3.222z" fill="#CCCCCC"/>
        </g>
       </g>
       <g id="svg_17">
        <path id="svg_18" d="m604.122,-10.64c-10.673,10.673 -18.266,12.496 -24.301,12.874c-8.977,0.615 -17.684,-2.594 -23.893,-8.803c-5.293,-5.293 -8.176,-13.343 -8.285,-18.561l-0.088,-4.067l-3.86,1.286c-10.938,3.645 -24.231,0.152 -33.077,-8.693c-6.6,-6.6 -10.316,-15.788 -10.194,-25.243c0,-10.23 4.44,-19.233 14.396,-29.188l32.623,-32.624l84.85,84.849l-28.171,28.17m-19.134,-49.594l-2.121,2.121l-12.091,12.092c-5.254,5.254 -7.42,9.726 -7.24,14.968c0.166,4.116 1.877,8.092 4.695,10.911c2.818,2.816 6.795,4.529 10.928,4.695c5.225,0.179 9.697,-1.986 14.951,-7.24l12.091,-12.092l2.121,-2.121l-2.121,-2.121l-19.091,-19.092l-2.122,-2.121m-39.454,-39.455l-2.122,2.121l-17.182,17.182c-6.04,6.039 -8.706,11.648 -8.385,17.648c0.162,5.057 2.181,9.663 5.839,13.321s8.265,5.677 13.321,5.839c5.999,0.32 11.609,-2.345 17.649,-8.384l17.182,-17.183l2.121,-2.121l-2.121,-2.121l-24.182,-24.183l-2.12,-2.119m60.709,91.17l30.291,-30.291l-89.092,-89.09l-34.744,34.744c-11.455,11.455 -15.274,21.383 -15.274,31.31c-0.127,9.8 3.563,19.854 11.073,27.364c9.928,9.928 24.309,13.364 36.146,9.418c0.127,5.982 3.309,14.763 9.164,20.618c7.254,7.254 16.927,10.309 26.219,9.673c8.145,-0.509 16.162,-3.692 26.217,-13.746l0,0zm-21.255,-47.472l19.091,19.091l-12.091,12.092c-5.345,5.344 -9.035,6.49 -12.726,6.362c-3.183,-0.127 -6.492,-1.4 -8.909,-3.817c-2.419,-2.419 -3.692,-5.729 -3.819,-8.91c-0.127,-3.69 1.019,-7.382 6.363,-12.727l12.091,-12.091l0,0zm-39.454,-39.455l24.182,24.182l-17.183,17.182c-5.981,5.981 -10.817,7.763 -15.399,7.509c-4.199,-0.127 -8.146,-1.781 -11.328,-4.962c-3.182,-3.183 -4.835,-7.129 -4.964,-11.329c-0.253,-4.581 1.528,-9.418 7.51,-15.399l17.182,-17.183l0,0z" fill="#CCCCCC"/>
        <path id="svg_19" d="m434.586,158.896c-7.778,7.777 -15.429,11.584 -24.077,11.977c-8.938,0.235 -17.633,-3.2 -23.862,-9.431c-6.235,-6.235 -9.673,-14.942 -9.431,-23.892c0.119,-4.47 1.219,-8.668 3.359,-12.835l2.01,-3.913l-4.375,-0.443l-67.912,-6.873l15.768,-15.768l69.717,7.607l1.43,0.155l1.016,-1.016l6.237,-6.237l2.122,-2.121l-2.122,-2.122l-37.333,-37.333l12.939,-12.938l84.849,84.849l-30.335,30.334m-16.969,-51.758l-2.122,2.121l-14.255,14.255c-5.055,5.055 -7.04,8.986 -6.859,13.57c0.163,4.055 2.062,8.275 5.077,11.291c3.096,3.096 7.364,5.042 11.421,5.203c4.693,0.189 8.79,-1.822 13.695,-6.73l14.255,-14.255l2.121,-2.122l-2.121,-2.121l-19.091,-19.091l-2.121,-2.121m19.091,53.88l32.455,-32.455l-89.092,-89.092l-17.181,17.181l39.454,39.455l-6.237,6.236l-71.146,-7.763l-21.255,21.255l74.201,7.508c-2.42,4.71 -3.564,9.419 -3.691,14.127c-0.254,9.42 3.182,18.965 10.31,26.094c7.127,7.127 16.673,10.562 26.091,10.308c8.527,-0.381 16.927,-3.691 26.091,-12.854l0,0zm-19.091,-49.638l19.091,19.091l-14.256,14.256c-4.963,4.964 -8.272,5.982 -11.455,5.855c-3.18,-0.129 -6.744,-1.654 -9.418,-4.326c-2.545,-2.547 -4.072,-6.112 -4.2,-9.292c-0.127,-3.183 1.019,-6.364 5.982,-11.328l14.256,-14.256l0,0z" fill="#CCCCCC"/>
        <g id="svg_20">
         <path id="svg_21" d="m517.387,80.195l12.092,-12.091l-50.915,-127.278l-17.945,17.945l11.398,28.2l-35.764,35.765l-28.199,-11.4l-17.945,17.945l127.278,50.914zm-61.079,-50.643l22.654,-22.654l3.222,-3.222l1.536,4.082l14.943,37.599l2.546,6.444l-6.49,-2.594l-37.537,-14.884l-4.096,-1.55l3.222,-3.221z" fill="#CCCCCC"/>
        </g>
       </g>
      </g>
     </g>
    </g>
   </g>
  </g>
 </g>
</svg>