<svg width="612.92" height="172.92" xmlns="http://www.w3.org/2000/svg">

 <g>
  <title>background</title>
  <rect fill="none" id="canvas_background" height="174.92" width="614.92" y="-1" x="-1"/>
 </g>
 <g>
  <title>Layer 1</title>
  <g id="svg_1">
   <g id="svg_2">
    <path id="svg_3" d="m263.763001,18.758498l0,-14.517l7.206,0l0,41.114l-7.206,0l0,-3.017c-0.925,1.681 -3.772,3.483 -7.082,3.483c-8.594,0 -13.356,-5.867 -13.356,-15.102s4.762,-15.1 13.356,-15.1c2.846,0.002 5.751,1.455 7.082,3.139zm-12.888,11.963c0,2.789 0.638,4.996 1.917,6.562c1.274,1.569 2.903,2.383 4.878,2.383c1.972,0 3.599,-0.753 4.818,-2.322c1.274,-1.568 1.918,-3.776 1.918,-6.623c0,-2.846 -0.644,-4.994 -1.918,-6.562c-1.22,-1.568 -2.847,-2.381 -4.818,-2.381c-1.975,0 -3.604,0.812 -4.878,2.381c-1.279,1.568 -1.917,3.776 -1.917,6.562z"/>
    <path id="svg_4" d="m312.670001,33.045498l-20.15,0c0.171,3.542 2.729,6.621 6.912,6.621c2.963,0 5.343,-1.51 7.085,-4.531l5.806,2.148c-2.497,5.692 -6.908,8.539 -13.3,8.539c-10.044,0 -14.054,-8.129 -14.054,-15.102c0,-6.967 4.01,-15.1 14.054,-15.1c4.646,0 8.423,1.916 10.516,4.879c2.088,2.846 3.132,6.273 3.132,9.584l0,2.962l-0.001,0zm-19.979,-5.692l12.608,0c-0.815,-3.717 -2.904,-5.576 -6.276,-5.576c-3.425,0 -5.806,2.5 -6.332,5.576z"/>
    <path id="svg_5" d="m325.131001,33.143498l0,-5.736l49.759,0l0,5.736l-49.759,0z"/>
    <path id="svg_6" d="m270.907001,92.124498c-2.26,5.574 -6.675,8.364 -13.295,8.364c-4.588,0 -8.075,-1.452 -10.571,-4.299c-2.498,-2.845 -3.717,-6.447 -3.717,-10.801c0,-4.358 1.219,-7.957 3.717,-10.803c2.496,-2.846 5.983,-4.298 10.571,-4.298c6.62,0 11.035,2.788 13.295,8.362l-6.442,2.613c-1.565,-3.193 -3.89,-4.819 -6.853,-4.819c-4.415,0 -6.737,3.601 -6.737,8.944c0,5.342 2.323,8.941 6.737,8.941c2.963,0 5.288,-1.628 6.853,-4.818l6.442,2.614z"/>
    <path id="svg_7" d="m311.028001,87.713498l-20.149,0c0.174,3.541 2.729,6.617 6.913,6.617c2.96,0 5.343,-1.506 7.082,-4.528l5.807,2.147c-2.495,5.69 -6.906,8.539 -13.299,8.539c-10.044,0 -14.051,-8.133 -14.051,-15.1c0,-6.97 4.007,-15.101 14.051,-15.101c4.648,0 8.425,1.918 10.514,4.878c2.09,2.847 3.132,6.273 3.132,9.582l0,2.966zm-19.976,-5.692l12.601,0c-0.812,-3.719 -2.901,-5.577 -6.271,-5.577c-3.427,0 -5.807,2.497 -6.33,5.577z"/>
    <path id="svg_8" d="m325.135001,70.754498l7.199,0l0,4.703c2.381,-3.426 5.403,-5.169 9.062,-5.169c5.397,0 9.001,3.08 9.001,8.827l0,20.906l-7.204,0l0,-18.758c0,-3.193 -1.395,-4.819 -4.181,-4.819c-3.716,0 -6.679,4.528 -6.679,11.904l0,11.673l-7.199,0l0,-29.267l0.001,0z"/>
    <path id="svg_9" d="m383.199001,99.441498c-1.509,0.697 -3.079,1.047 -4.761,1.047c-6.739,0 -10.747,-3.659 -10.747,-10.803l0,-12.777l-4.525,0l0,-6.154l4.525,0l0,-7.32l7.202,-4.527l0,11.848l7.726,0l0,6.154l-7.726,0l0,12.663c0,3.481 1.278,4.759 3.835,4.759c0.985,0 1.916,-0.23 2.785,-0.695l1.686,5.805z"/>
    <path id="svg_10" d="m404.271001,100.021498l-7.201,0l0,-29.268l7.201,0l0,4.761c2.093,-3.309 5.229,-5.227 8.653,-5.227c1.104,0 2.264,0.174 3.544,0.58l-1.337,6.678c-0.872,-0.521 -1.917,-0.812 -3.019,-0.812c-4.589,0 -7.842,4.008 -7.842,12.893l0,10.395l0.001,0z"/>
    <path id="svg_11" d="m428.133001,78.419498c0.923,-4.882 5.283,-8.131 11.147,-8.131c8.188,0 12.312,4.065 12.312,12.253l0,17.48l-5.923,0l-0.761,-3.717c-2.262,2.79 -5.285,4.184 -8.999,4.184c-5.171,0 -8.882,-3.252 -8.882,-8.887c0,-5.807 5.049,-9.58 12.484,-9.58l4.879,0l0,-1.279c0,-2.848 -1.684,-4.298 -5.111,-4.298c-2.617,0 -4.3,1.102 -5.051,3.368l-6.095,-1.393zm9.462,15.911c1.805,0 3.372,-0.58 4.703,-1.684c1.397,-1.104 2.094,-2.555 2.094,-4.353l0,-0.581l-4.817,0c-3.315,0 -5.001,1.275 -5.001,3.773c-0.001,1.568 1.107,2.845 3.021,2.845z"/>
    <path id="svg_12" d="m466.275001,58.906498l7.2,0l0,41.115l-7.2,0l0,-41.115z"/>
    <path id="svg_13" d="m488.914001,59.021498c1.795,-1.801 4.819,-1.801 6.618,0c1.806,1.8 1.806,4.822 0,6.621c-1.799,1.798 -4.823,1.798 -6.618,0c-1.802,-1.798 -1.802,-4.821 0,-6.621zm-0.291,11.733l7.202,0l0,29.268l-7.202,0l0,-29.268z"/>
    <path id="svg_14" d="m510.161001,76.908498l0,-6.154l20.674,0l0,2.783l-12.549,20.33l13.361,0l0,6.154l-22.417,0l0,-2.785l12.661,-20.328l-11.73,0z"/>
    <path id="svg_15" d="m571.012001,87.713498l-20.152,0c0.175,3.541 2.729,6.617 6.908,6.617c2.965,0 5.345,-1.506 7.089,-4.528l5.807,2.147c-2.496,5.69 -6.912,8.539 -13.3,8.539c-10.044,0 -14.051,-8.133 -14.051,-15.1c0,-6.97 4.007,-15.101 14.051,-15.101c4.647,0 8.422,1.918 10.513,4.878c2.091,2.847 3.136,6.273 3.136,9.582l0,2.966l-0.001,0zm-19.977,-5.692l12.6,0c-0.81,-3.719 -2.901,-5.577 -6.271,-5.577c-3.424,0 -5.809,2.497 -6.329,5.577z"/>
    <path id="svg_16" d="m604.802001,73.424498l0,-14.518l7.201,0l0,41.115l-7.201,0l0,-3.018c-0.929,1.684 -3.776,3.484 -7.084,3.484c-8.6,0 -13.36,-5.867 -13.36,-15.1c0,-9.234 4.76,-15.101 13.36,-15.101c2.844,0.002 5.747,1.454 7.084,3.138zm-12.893,11.965c0,2.785 0.638,4.994 1.916,6.561c1.276,1.57 2.902,2.381 4.877,2.381c1.976,0 3.601,-0.753 4.824,-2.322c1.275,-1.567 1.916,-3.775 1.916,-6.619c0,-2.848 -0.64,-4.994 -1.916,-6.564c-1.223,-1.568 -2.849,-2.38 -4.824,-2.38c-1.975,0 -3.601,0.812 -4.877,2.38c-1.278,1.568 -1.916,3.772 -1.916,6.563z"/>
    <g id="svg_17">
     <path id="svg_18" d="m374.944001,161.191498c-0.889,0.406 -1.806,0.611 -2.796,0.611c-3.951,0 -6.3,-2.148 -6.3,-6.338l0,-7.494l-2.661,0l0,-3.611l2.661,0l0,-4.291l4.224,-2.658l0,6.949l4.532,0l0,3.611l-4.532,0l0,7.429c0,2.042 0.748,2.794 2.248,2.794c0.581,0 1.124,-0.137 1.633,-0.41l0.991,3.408z"/>
     <path id="svg_19" d="m397.911001,154.309498l-11.824,0c0.103,2.076 1.601,3.885 4.052,3.885c1.741,0 3.136,-0.889 4.158,-2.66l3.408,1.262c-1.463,3.338 -4.052,5.008 -7.801,5.008c-5.896,0 -8.243,-4.77 -8.243,-8.857c0,-4.09 2.348,-8.858 8.243,-8.858c2.72,0 4.939,1.124 6.168,2.861c1.225,1.669 1.839,3.68 1.839,5.622l0,1.737zm-11.721,-3.34l7.393,0c-0.476,-2.18 -1.703,-3.268 -3.679,-3.268c-2.011,0 -3.409,1.462 -3.714,3.268z"/>
     <path id="svg_20" d="m421.932001,156.897498c-1.326,3.271 -3.917,4.905 -7.8,4.905c-2.693,0 -4.737,-0.853 -6.202,-2.521c-1.466,-1.671 -2.183,-3.784 -2.183,-6.337c0,-2.559 0.717,-4.668 2.183,-6.337c1.464,-1.669 3.508,-2.521 6.202,-2.521c3.883,0 6.474,1.636 7.8,4.905l-3.781,1.533c-0.92,-1.876 -2.285,-2.824 -4.019,-2.824c-2.592,0 -3.95,2.109 -3.95,5.244c0,3.134 1.358,5.248 3.95,5.248c1.734,0 3.099,-0.955 4.019,-2.83l3.781,1.535z"/>
     <path id="svg_21" d="m429.770001,137.410498l4.227,0l0,9.708c1.264,-2.009 3.106,-3.031 5.455,-3.031c3.305,0 5.343,1.772 5.343,5.179l0,12.265l-4.223,0l0,-10.767c0,-2.044 -0.852,-3.062 -2.555,-3.062c-2.179,0 -4.02,2.245 -4.02,6.573l0,7.256l-4.227,0l0,-24.121z"/>
     <path id="svg_22" d="m453.935001,144.359498l4.223,0l0,2.759c1.397,-2.009 3.166,-3.031 5.314,-3.031c3.168,0 5.281,1.804 5.281,5.179l0,12.265l-4.226,0l0,-11.005c0,-1.876 -0.818,-2.824 -2.456,-2.824c-2.178,0 -3.913,2.656 -3.913,6.979l0,6.85l-4.223,0l0,-17.172z"/>
     <path id="svg_23" d="m476.965001,152.945498c0,-2.559 0.786,-4.668 2.353,-6.337c1.57,-1.669 3.681,-2.521 6.37,-2.521c2.693,0 4.806,0.853 6.372,2.521c1.569,1.669 2.353,3.778 2.353,6.337c0,2.553 -0.784,4.701 -2.353,6.37c-1.566,1.671 -3.679,2.487 -6.372,2.487c-2.689,0 -4.8,-0.816 -6.37,-2.487c-1.568,-1.669 -2.353,-3.817 -2.353,-6.37zm4.431,0c0,1.464 0.376,2.725 1.16,3.747c0.785,0.989 1.806,1.501 3.132,1.501c1.329,0 2.353,-0.512 3.135,-1.501c0.785,-1.022 1.159,-2.283 1.159,-3.747c0,-1.465 -0.374,-2.727 -1.159,-3.713c-0.782,-1.023 -1.807,-1.531 -3.135,-1.531c-1.326,0 -2.347,0.508 -3.132,1.531c-0.785,0.987 -1.16,2.248 -1.16,3.713z"/>
     <path id="svg_24" d="m502.830001,137.410498l4.22,0l0,24.12l-4.22,0l0,-24.12z"/>
     <path id="svg_25" d="m515.402001,152.945498c0,-2.559 0.786,-4.668 2.354,-6.337s3.676,-2.521 6.368,-2.521c2.696,0 4.804,0.853 6.375,2.521c1.567,1.669 2.351,3.778 2.351,6.337c0,2.553 -0.784,4.701 -2.351,6.37c-1.57,1.671 -3.679,2.487 -6.375,2.487c-2.692,0 -4.801,-0.816 -6.368,-2.487c-1.568,-1.669 -2.354,-3.817 -2.354,-6.37zm4.429,0c0,1.464 0.381,2.725 1.163,3.747c0.782,0.989 1.802,1.501 3.131,1.501c1.331,0 2.354,-0.512 3.135,-1.501c0.782,-1.022 1.159,-2.283 1.159,-3.747c0,-1.465 -0.377,-2.727 -1.159,-3.713c-0.782,-1.023 -1.804,-1.531 -3.135,-1.531c-1.329,0 -2.349,0.508 -3.131,1.531c-0.783,0.987 -1.163,2.248 -1.163,3.713z"/>
     <path id="svg_26" d="m543.208001,145.687498c1.191,-1.055 2.691,-1.601 4.496,-1.601c1.128,0 2.182,0.237 3.172,0.749l3.232,-1.703l1.672,2.795l-2.456,1.224c0.445,0.784 0.683,1.704 0.683,2.728c0,1.738 -0.612,3.135 -1.807,4.191c-1.186,1.02 -2.687,1.534 -4.496,1.534c-0.853,0 -1.704,-0.14 -2.488,-0.378c-0.544,0.307 -0.817,0.748 -0.817,1.295c0,0.852 0.548,1.262 1.601,1.262l3.513,0c3.678,0 6.023,1.803 6.023,5.041c0,1.328 -0.402,2.453 -1.19,3.373c-1.599,1.874 -3.879,2.557 -6.606,2.557c-2.284,0 -4.156,-0.479 -5.624,-1.469c-1.431,-0.987 -2.146,-2.383 -2.146,-4.189c0,-1.396 0.479,-2.553 1.396,-3.406c-0.578,-0.716 -0.887,-1.603 -0.887,-2.656c0,-1.568 0.721,-2.759 2.116,-3.611c-0.781,-0.988 -1.192,-2.148 -1.192,-3.543c0,-1.74 0.615,-3.136 1.805,-4.193zm3.034,15.636c-0.786,0 -1.433,-0.033 -1.977,-0.132c-0.236,0.373 -0.376,0.883 -0.376,1.566c0,1.599 1.535,2.451 3.851,2.451c2.381,0 3.578,-0.713 3.578,-2.113c0,-1.191 -0.921,-1.772 -2.76,-1.772l-2.316,0zm1.463,-9.127c1.364,0 2.354,-0.956 2.354,-2.317c0,-1.398 -0.99,-2.385 -2.354,-2.385c-1.363,0 -2.351,0.986 -2.351,2.385c0,1.361 0.987,2.317 2.351,2.317z"/>
     <path id="svg_27" d="m563.380001,137.478498c1.055,-1.057 2.825,-1.057 3.885,0c1.056,1.055 1.056,2.826 0,3.884c-1.06,1.056 -2.831,1.056 -3.885,0c-1.054,-1.057 -1.054,-2.829 0,-3.884zm-0.17,6.881l4.228,0l0,17.171l-4.228,0l0,-17.171z"/>
     <path id="svg_28" d="m592.206001,154.309498l-11.82,0c0.1,2.076 1.595,3.885 4.052,3.885c1.741,0 3.136,-0.889 4.157,-2.66l3.409,1.262c-1.464,3.338 -4.056,5.008 -7.807,5.008c-5.891,0 -8.242,-4.77 -8.242,-8.857c0,-4.09 2.351,-8.858 8.242,-8.858c2.729,0 4.942,1.124 6.17,2.861c1.228,1.669 1.839,3.68 1.839,5.622l0,1.737zm-11.721,-3.34l7.394,0c-0.478,-2.18 -1.7,-3.268 -3.682,-3.268c-2.008,0 -3.406,1.462 -3.712,3.268z"/>
     <path id="svg_29" d="m611.121001,146.881498l-2.522,2.314c-0.785,-0.986 -1.742,-1.494 -2.867,-1.494c-0.847,0 -1.56,0.508 -1.56,1.43c0,0.713 0.542,1.256 1.63,1.668l1.229,0.441l1.467,0.509c0.27,0.106 0.676,0.343 1.222,0.651c0.58,0.305 0.991,0.578 1.229,0.885c0.51,0.576 1.054,1.602 1.054,2.794c0,1.603 -0.579,2.929 -1.703,4.054c-1.125,1.124 -2.589,1.67 -4.396,1.67c-1.631,0 -3.062,-0.479 -4.256,-1.398c-1.197,-0.92 -2.044,-2.008 -2.559,-3.234l3.377,-1.807c0.679,1.875 1.841,2.83 3.437,2.83c1.399,0 2.116,-0.615 2.116,-1.842c0,-0.545 -0.274,-0.988 -0.924,-1.294c-0.304,-0.171 -0.645,-0.308 -0.953,-0.409c-0.58,-0.271 -1.768,-0.646 -2.418,-0.92c-2.183,-0.921 -3.474,-2.181 -3.474,-4.635c0,-1.393 0.51,-2.554 1.534,-3.541c1.022,-0.988 2.35,-1.466 3.947,-1.466c2.289,0 4.296,1.124 5.39,2.794z"/>
    </g>
   </g>
   <path id="svg_30" d="m65.759001,100.365498l-18.947,0l0,-5.368c-3.257,2.944 -8.533,5.368 -14.514,5.368c-19.649,0 -31.381,-13.191 -31.381,-35.287c0,-22.098 11.731,-35.291 31.381,-35.291c5.1,0 10.7,2.041 14.514,5.106l0,-30.663l18.947,0l0,96.135zm-16.168,-2.779l13.389,0l0,-90.576l-13.389,0l0,35.197l-2.479,-3.126c-2.505,-3.157 -8.548,-6.515 -14.815,-6.515c-18.176,0 -28.601,11.851 -28.601,32.512c0,20.659 10.425,32.508 28.601,32.508c6.738,0 12.759,-3.612 14.687,-7.105l2.607,-4.723l0,11.828zm-15.078,-11.041c-4.818,0 -8.865,-1.971 -12.028,-5.859c-3.064,-3.753 -4.618,-9.004 -4.618,-15.607c0,-6.605 1.554,-11.857 4.619,-15.613c3.163,-3.886 7.209,-5.856 12.027,-5.856c4.872,0 8.882,1.979 11.917,5.881c3.088,3.788 4.597,8.896 4.597,15.589c0,6.685 -1.553,11.98 -4.617,15.738c-2.95,3.791 -6.959,5.727 -11.897,5.727zm0,-40.156c-3.997,0 -7.226,1.58 -9.873,4.832c-2.651,3.248 -3.995,7.91 -3.995,13.857c0,5.945 1.344,10.606 3.993,13.852c2.648,3.255 5.877,4.836 9.874,4.836c4.094,0 7.274,-1.531 9.723,-4.68c2.669,-3.275 4.012,-7.979 4.012,-14.008c0,-6.027 -1.306,-10.561 -3.992,-13.857c-2.501,-3.215 -5.773,-4.832 -9.742,-4.832z"/>
   <path id="svg_31" d="m93.807001,100.335498l-18.727,0l58.448,-96.069l18.727,0l-58.448,96.069zm-14.047,-2.631l12.569,0l55.246,-90.808l-12.567,0l-55.248,90.808z"/>
   <path id="svg_32" d="m185.873001,100.359498c-16.212,0 -25.509,-9.346 -25.509,-25.641l0,-27.295l-10.167,0l0,-16.602l10.167,0l0,-14.734l18.946,-11.922l0,26.656l17.344,0l0,16.602l-17.344,0l0,27.033c0,7.721 2.886,9.303 7.218,9.303c1.976,0 3.861,-0.471 5.602,-1.401l1.513,-0.808l4.593,15.832l-1.085,0.501c-3.607,1.667 -7.295,2.476 -11.278,2.476zm-32.897,-55.715l10.167,0l0,30.075c0,14.956 7.861,22.861 22.73,22.861c3.17,0 6.133,-0.572 9.02,-1.745l-2.991,-10.312c-1.706,0.676 -3.506,1.016 -5.373,1.016c-6.821,0 -9.998,-3.838 -9.998,-12.082l0,-29.813l17.345,0l0,-11.042l-17.346,0l0,-24.402l-13.387,8.423l0,15.979l-10.167,0l0,11.042z"/>
  </g>
 </g>
</svg>